<?xml version="1.0" encoding="UTF-8" standalone="no"?>
<svg
   xmlns:dc="http://purl.org/dc/elements/1.1/"
   xmlns:cc="http://creativecommons.org/ns#"
   xmlns:rdf="http://www.w3.org/1999/02/22-rdf-syntax-ns#"
   xmlns:svg="http://www.w3.org/2000/svg"
   xmlns="http://www.w3.org/2000/svg"
   viewBox="0 0 64.048866 19.230652"
   height="19.230652"
   width="64.048866"
   xml:space="preserve"
   id="svg2"
   version="1.1"><metadata
     id="metadata8"><rdf:RDF><cc:Work
         rdf:about=""><dc:format>image/svg+xml</dc:format><dc:type
           rdf:resource="http://purl.org/dc/dcmitype/StillImage" /></cc:Work></rdf:RDF></metadata><defs
     id="defs6" /><g
     transform="matrix(1.3333333,0,0,-1.3333333,-0.65599998,19.886652)"
     id="g10"><g
       transform="scale(0.1)"
       id="g12"><g
         transform="scale(10)"
         id="g14"><text
           id="text20"
           style="font-variant:normal;font-weight:normal;font-size:7.49980021px;font-family:Arial;-inkscape-font-specification:ArialMT;writing-mode:lr-tb;fill:#000000;fill-opacity:1;fill-rule:nonzero;stroke:none"
           transform="matrix(1.00004,0,0,-1,22.7395,9.54648)"><tspan
             id="tspan16"
             y="0"
             x="0 5.0023665 7.4998002 11.669689 15.839578 20.009466 23.759367">Product</tspan><tspan
             id="tspan18"
             y="8.3784647"
             x="0 4.5823779 8.7522669 10.417222 14.587111 18.757">Folder</tspan></text>
</g><path
         id="path22"
         style="fill:#d60000;fill-opacity:1;fill-rule:evenodd;stroke:none"
         d="M 162.488,6 H 6.00391 V 125.176 H 27.9688 V 147.34 H 84.2461 V 125.176 H 162.488 V 6" /><path
         id="path24"
         style="fill:#d60000;fill-opacity:1;fill-rule:evenodd;stroke:none"
         d="M 164.977,6 H 6.53906 L 36.6953,100.605 H 195.133 L 164.977,6" /><path
         id="path26"
         style="fill:#ffffff;fill-opacity:1;fill-rule:evenodd;stroke:none"
         d="m 194.531,98.7109 1.403,4.4451 H 34.0586 L 6,14.1289 V 6 H 7.46094 L 37.1172,98.707 194.531,98.7109" /><path
         id="path28"
         style="fill:none;stroke:#ffffff;stroke-width:2.16000009;stroke-linecap:butt;stroke-linejoin:miter;stroke-miterlimit:2.61313009;stroke-dasharray:none;stroke-opacity:1"
         d="m 194.531,98.7109 1.403,4.4451 H 34.0586 L 6,14.1289 V 6 H 7.46094 L 37.1172,98.707 Z" /></g></g></svg>