<?xml version="1.0" encoding="UTF-8" standalone="no"?>
<svg
   xmlns:dc="http://purl.org/dc/elements/1.1/"
   xmlns:cc="http://creativecommons.org/ns#"
   xmlns:rdf="http://www.w3.org/1999/02/22-rdf-syntax-ns#"
   xmlns:svg="http://www.w3.org/2000/svg"
   xmlns="http://www.w3.org/2000/svg"
   viewBox="0 0 50.433117 19.574761"
   height="19.57476"
   width="50.433117"
   xml:space="preserve"
   id="svg2"
   version="1.1"><metadata
     id="metadata8"><rdf:RDF><cc:Work
         rdf:about=""><dc:format>image/svg+xml</dc:format><dc:type
           rdf:resource="http://purl.org/dc/dcmitype/StillImage" /></cc:Work></rdf:RDF></metadata><defs
     id="defs6" /><g
     transform="matrix(1.3333333,0,0,-1.3333333,0.0147037,19.58674)"
     id="g10"><g
       transform="scale(0.1)"
       id="g12"><g
         transform="scale(10)"
         id="g14"><text
           id="text20"
           style="font-variant:normal;font-weight:normal;font-size:7.5000248px;font-family:Arial;-inkscape-font-specification:ArialMT;writing-mode:lr-tb;fill:#000000;fill-opacity:1;fill-rule:nonzero;stroke:none"
           transform="matrix(1.00007,0,0,-1,18.5398,9.22617)"><tspan
             id="tspan16"
             y="0"
             x="0 5.8350196 8.3325281 12.502542 16.672556">Order</tspan><tspan
             id="tspan18"
             y="8.3783159"
             x="0 5.4150181 9.5850315">Now</tspan></text>
</g><path
         id="path22"
         style="fill:none;stroke:#d60000;stroke-width:15.49979973;stroke-linecap:round;stroke-linejoin:round;stroke-miterlimit:2.61313009;stroke-dasharray:none;stroke-opacity:1"
         d="M 7.75,137.852 H 40.2656 L 60.4219,53.7383 h 81.1641" /><path
         id="path24"
         style="fill:#d60000;fill-opacity:1;fill-rule:evenodd;stroke:none"
         d="M 155.012,118.773 145.441,76.1094 H 80.8867 l -9.5703,42.6636 h 83.6956" /><path
         id="path26"
         style="fill:#d60000;fill-opacity:1;fill-rule:evenodd;stroke:none"
         d="m 73.3281,17.6328 c 0,9.6914 -7.8593,17.5469 -17.5468,17.5469 -9.6915,0 -17.5508,-7.8555 -17.5508,-17.5469 0,-9.68358 7.8593,-17.5429562 17.5508,-17.5429562 9.6875,0 17.5468,7.8593762 17.5468,17.5429562" /><path
         id="path28"
         style="fill:#d60000;fill-opacity:1;fill-rule:evenodd;stroke:none"
         d="m 142.621,17.6328 c 0,9.6914 -7.851,17.5469 -17.547,17.5469 -9.687,0 -17.543,-7.8555 -17.543,-17.5469 0,-9.68358 7.856,-17.5429562 17.543,-17.5429562 9.696,0 17.547,7.8593762 17.547,17.5429562" /></g></g></svg>