<?xml version="1.0" encoding="UTF-8" standalone="no"?>
<svg
   xmlns:dc="http://purl.org/dc/elements/1.1/"
   xmlns:cc="http://creativecommons.org/ns#"
   xmlns:rdf="http://www.w3.org/1999/02/22-rdf-syntax-ns#"
   xmlns:svg="http://www.w3.org/2000/svg"
   xmlns="http://www.w3.org/2000/svg"
   viewBox="0 0 71.449097 18.446482"
   height="18.446482"
   width="71.449097"
   xml:space="preserve"
   id="svg2"
   version="1.1"><metadata
     id="metadata8"><rdf:RDF><cc:Work
         rdf:about=""><dc:format>image/svg+xml</dc:format><dc:type
           rdf:resource="http://purl.org/dc/dcmitype/StillImage" /></cc:Work></rdf:RDF></metadata><defs
     id="defs6" /><g
     transform="matrix(1.3333333,0,0,-1.3333333,-1.2994266,19.245519)"
     id="g10"><g
       transform="scale(0.1)"
       id="g12"><g
         transform="scale(10)"
         id="g14"><text
           id="text20"
           style="font-variant:normal;font-weight:normal;font-size:7.49980021px;font-family:Arial;-inkscape-font-specification:ArialMT;writing-mode:lr-tb;fill:#000000;fill-opacity:1;fill-rule:nonzero;stroke:none"
           transform="matrix(1.00004,0,0,-1,16.9227,9.06563)"><tspan
             id="tspan16"
             y="0"
             x="0 3.75002 7.919909 11.669808 15.839698 20.009586 21.674541 25.424442 29.59433">Technical</tspan><tspan
             id="tspan18"
             y="8.3784647"
             x="0 5.4148555 9.5847445 13.334644 17.504534 23.751867 27.921755 32.091644 34.17659">Documents</tspan></text>
</g><path
         id="path22"
         style="fill:none;stroke:#d60000;stroke-width:12.50080013;stroke-linecap:round;stroke-linejoin:round;stroke-miterlimit:2.61313009;stroke-dasharray:none;stroke-opacity:1"
         d="m 128.039,13.625 v 88.953 L 93.1602,137.457 H 15.9961 V 13.625 Z" /><path
         id="path24"
         style="fill:#d60000;fill-opacity:1;fill-rule:evenodd;stroke:none"
         d="M 71.7422,29.4844 44.4414,56.7813 v 4.25 H 60.1367 V 87.8438 H 83.3438 V 61.0313 h 15.6953 v -4.25 L 71.7422,29.4844" /><path
         id="path26"
         style="fill:#d60000;fill-opacity:1;fill-rule:evenodd;stroke:none"
         d="m 92.832,91.1133 h 35.207 V 102.578 L 93.1602,137.457 H 82.4961 V 101.445 L 92.832,91.1133" /></g></g></svg>