<?xml version="1.0" encoding="UTF-8" standalone="no"?>
<svg
   xmlns:dc="http://purl.org/dc/elements/1.1/"
   xmlns:cc="http://creativecommons.org/ns#"
   xmlns:rdf="http://www.w3.org/1999/02/22-rdf-syntax-ns#"
   xmlns:svg="http://www.w3.org/2000/svg"
   xmlns="http://www.w3.org/2000/svg"
   viewBox="0 0 63.208992 19.398411"
   height="19.398411"
   width="63.208992"
   xml:space="preserve"
   id="svg2"
   version="1.1"><metadata
     id="metadata8"><rdf:RDF><cc:Work
         rdf:about=""><dc:format>image/svg+xml</dc:format><dc:type
           rdf:resource="http://purl.org/dc/dcmitype/StillImage" /></cc:Work></rdf:RDF></metadata><defs
     id="defs6" /><g
     transform="matrix(1.3333333,0,0,-1.3333333,-0.79947865,20.198933)"
     id="g10"><g
       transform="scale(0.1)"
       id="g12"><g
         transform="scale(10)"
         id="g14"><text
           id="text20"
           style="font-variant:normal;font-weight:normal;font-size:7.49980021px;font-family:Arial;-inkscape-font-specification:ArialMT;writing-mode:lr-tb;fill:#000000;fill-opacity:1;fill-rule:nonzero;stroke:none"
           transform="matrix(1.00004,0,0,-1,18.7211,9.55703)"><tspan
             id="tspan16"
             y="0"
             x="0 3.75002 7.919909 12.089798 13.754753 17.504654 19.589598">Tools &amp;</tspan><tspan
             id="tspan18"
             y="8.3780651"
             x="0 5.0023665 9.1722555 11.2572 13.342144 18.757 22.926889 25.424322">Software</tspan></text>
</g><path
         id="path22"
         style="fill:#d60000;fill-opacity:1;fill-rule:evenodd;stroke:none"
         d="m 141.035,19.7656 c 5.973,5.9766 5.973,15.6563 0,21.6328 -5.976,5.9766 -15.664,5.9766 -21.637,0 -5.976,-5.9765 -5.976,-15.6562 0,-21.6328 5.973,-5.9765 15.661,-5.9765 21.637,0" /><path
         id="path24"
         style="fill:#d60000;fill-opacity:1;fill-rule:evenodd;stroke:none"
         d="m 66.3594,133.625 -0.1406,-11.656 c -0.043,-3.774 1.289,-7.039 3.9531,-9.707 L 141.035,41.3984 119.398,19.7656 53.1797,85.9805 c -2.5117,2.5117 -5.5195,3.8242 -9.0664,3.9492 L 22.5781,90.6875 5.99609,107.27 6,130.246 8.49609,129.824 23.2031,115.113 c 1.75,-1.75 4.6133,-1.75 6.3633,0 l 10.4258,10.426 c 1.7539,1.754 1.7539,4.613 0,6.363 l -13.2109,13.215 -0.1485,5.867 22.7461,0.508 17.4219,-17.422 -0.4414,-0.445" /><path
         id="path26"
         style="fill:#d60000;fill-opacity:1;fill-rule:evenodd;stroke:none"
         d="M 71.7539,57.4023 57.3906,43.0352 56.4766,29.9844 22.2813,6.00391 9.09766,19.1875 33.0781,53.3828 46.1289,54.2969 60.4961,68.6602 71.7539,57.4023" /><path
         id="path28"
         style="fill:#d60000;fill-opacity:1;fill-rule:evenodd;stroke:none"
         d="m 148.105,118.285 0.403,0.418 c 6.972,7.406 6.84,19.067 -0.403,26.309 -6.578,6.574 -16.804,7.289 -24.171,2.144 -0.899,-0.625 -1.754,-1.343 -2.555,-2.144 l 26.726,-26.727" /><path
         id="path30"
         style="fill:#d60000;fill-opacity:1;fill-rule:evenodd;stroke:none"
         d="m 148.105,118.285 -26.726,26.727 -33.8985,-33.899 -0.4219,-5.726 5.7266,0.422 27.2578,27.254 6.363,1.054 -1.054,-6.359 L 98.0938,100.5 97.7656,94.6719 103.594,95 l 27.254,27.254 6.367,1.059 -1.059,-6.364 -27.254,-27.2576 -0.425,-5.7266 5.73,0.4219 33.898,33.8983" /><path
         id="path32"
         style="fill:none;stroke:#d60000;stroke-width:0.55559999;stroke-linecap:round;stroke-linejoin:round;stroke-miterlimit:2.61313009;stroke-dasharray:none;stroke-opacity:1"
         d="M 66.5195,133.855 65.1367,114.98" /></g></g></svg>