<?xml version="1.0" encoding="UTF-8" standalone="no"?>
<svg
   xmlns:dc="http://purl.org/dc/elements/1.1/"
   xmlns:cc="http://creativecommons.org/ns#"
   xmlns:rdf="http://www.w3.org/1999/02/22-rdf-syntax-ns#"
   xmlns:svg="http://www.w3.org/2000/svg"
   xmlns="http://www.w3.org/2000/svg"
   viewBox="0 0 125.09268 81.381752"
   height="81.381752"
   width="125.09268"
   xml:space="preserve"
   id="svg2"
   version="1.1"><metadata
     id="metadata8"><rdf:RDF><cc:Work
         rdf:about=""><dc:format>image/svg+xml</dc:format><dc:type
           rdf:resource="http://purl.org/dc/dcmitype/StillImage" /></cc:Work></rdf:RDF></metadata><defs
     id="defs6" /><g
     transform="matrix(1.3333333,0,0,-1.3333333,-0.01197917,81.393731)"
     id="g10"><g
       transform="scale(0.1)"
       id="g12"><path
         id="path14"
         style="fill:#241f21;fill-opacity:1;fill-rule:nonzero;stroke:none"
         d="M 835.434,571.59 H 101.586 V 357.828 H 835.434 Z M 0.0898438,610.453 H 936.934 V 318.961 H 0.0898438 v 291.492" /><path
         id="path16"
         style="fill:#241f21;fill-opacity:1;fill-rule:nonzero;stroke:none"
         d="m 378.082,429.406 c 5.582,0 10.129,5.668 10.129,12.629 0,6.965 -4.547,12.637 -10.129,12.637 H 213.211 v -25.266 z m 44.875,116.492 c 16.609,0 30.063,-16.816 30.063,-37.468 0,-20.649 -13.454,-37.239 -30.063,-37.239 16.609,0 30.063,-16.582 30.063,-37.257 0,-20.649 -13.454,-37.473 -30.063,-37.473 l -274.551,-0.082 v 149.633 z m -44.875,-58.179 c 5.582,0 10.129,5.625 10.129,12.605 0,6.985 -4.547,12.633 -10.129,12.633 H 213.211 v -25.238 h 164.871" /><path
         id="path18"
         style="fill:#241f21;fill-opacity:1;fill-rule:nonzero;stroke:none"
         d="m 719.25,429.406 c 5.609,0 10.156,5.668 10.156,12.629 0,6.965 -4.547,12.637 -10.156,12.637 H 554.414 v -25.266 z m 44.895,116.492 c 16.593,0 30.046,-16.816 30.046,-37.468 0,-20.649 -13.453,-37.239 -30.046,-37.239 16.593,0 30.046,-16.582 30.046,-37.257 0,-20.649 -13.453,-37.473 -30.046,-37.473 L 489.602,396.379 V 546.012 Z M 719.25,487.719 c 5.609,0 10.156,5.625 10.156,12.605 0,6.985 -4.547,12.633 -10.156,12.633 H 554.414 V 487.719 H 719.25" /><path
         id="path20"
         style="fill:#241f21;fill-opacity:1;fill-rule:nonzero;stroke:none"
         d="M 28.7969,249.539 H 1.25391 v 12.34 H 67.3516 v -12.34 H 39.8047 V 151.832 H 28.7969 v 97.707" /><path
         id="path22"
         style="fill:#241f21;fill-opacity:1;fill-rule:nonzero;stroke:none"
         d="m 103.574,199.313 c -0.465,12.484 -7.5154,22.488 -17.242,22.488 -10.3047,0 -16.4414,-10.324 -17.1445,-22.488 z m 9.496,-22.2 c -2.66,-17.558 -12.144,-27.117 -25.5778,-27.117 -19.1055,0 -28.1367,17.563 -28.7305,41.91 0,23.891 11.8242,41.449 28.1406,41.449 21.1797,0 27.6717,-26.343 27.1017,-45.597 H 69.1875 c -0.3555,-13.875 5.5703,-26.195 18.6445,-26.195 8.1016,0 13.773,5.226 15.508,15.55 h 9.73" /><path
         id="path24"
         style="fill:#241f21;fill-opacity:1;fill-rule:nonzero;stroke:none"
         d="m 140.262,193.77 -20.84,37.742 h 12.629 l 14.344,-27.883 14.937,27.883 h 11.809 l -20.606,-36.688 23.168,-42.992 h -12.629 l -16.679,32.984 -16.672,-32.984 h -11.934 l 22.473,41.938" /><path
         id="path26"
         style="fill:#241f21;fill-opacity:1;fill-rule:nonzero;stroke:none"
         d="m 221.168,192.984 c -3.805,-3.703 -11.211,-3.847 -17.813,-5.394 -6.492,-1.543 -12.039,-4.613 -12.039,-14.324 0,-8.629 5.547,-11.723 11.575,-11.723 12.972,0 18.277,10.793 18.277,18.047 z m 15.977,-40.832 c -1.739,-1.394 -3.915,-2.156 -7.043,-2.156 -5.102,0 -8.344,3.699 -8.344,12.332 -5.43,-8.488 -12.735,-12.332 -21.07,-12.332 -10.872,0 -19.801,6.469 -19.801,22.34 0,18.027 10.07,21.898 20.246,24.5 10.898,2.777 20.164,1.863 20.164,11.723 0,11.406 -7.067,13.242 -13.313,13.242 -8.336,0 -14.488,-3.383 -14.929,-15.086 h -9.844 c 0.574,19.723 12.039,26.64 25.352,26.64 10.765,0 22.464,-3.234 22.464,-21.878 v -40.981 c 0,-6.18 0,-8.953 3.137,-8.953 0.801,0 1.707,0.148 2.981,0.785 v -10.176" /><path
         id="path28"
         style="fill:#241f21;fill-opacity:1;fill-rule:nonzero;stroke:none"
         d="m 252.316,176.965 c 0.336,-11.719 7.977,-15.422 16.082,-15.422 6.137,0 14.469,1.84 14.469,11.875 0,10.156 -9.707,11.863 -19.551,14.785 -9.734,2.938 -19.57,7.258 -19.57,22.512 0,16.019 11.914,22.664 22.344,22.664 13.203,0 23.715,-5.566 24.543,-24.965 h -9.844 c -0.691,10.152 -7.398,13.387 -13.898,13.387 -5.899,0 -12.735,-2.16 -12.735,-10.156 0,-9.415 10.434,-10.957 19.571,-13.875 9.843,-2.918 19.57,-7.239 19.57,-22.665 0,-18.96 -13.313,-25.109 -25.473,-25.109 -13.437,0 -24.777,7.234 -25.347,26.969 h 9.839" /><path
         id="path30"
         style="fill:#241f21;fill-opacity:1;fill-rule:nonzero;stroke:none"
         d="m 338.426,151.836 h 10.9844 V 261.879 H 338.426 Z" /><path
         id="path32"
         style="fill:#241f21;fill-opacity:1;fill-rule:nonzero;stroke:none"
         d="m 366.313,231.512 h 9.269 v -12.629 h 0.234 c 4.161,9.859 10.875,14.472 19.442,14.472 15.762,0 20.605,-12.019 20.605,-29.113 v -52.41 h -9.836 v 53.949 c 0,9.692 -4.629,16.02 -12.14,16.02 -11.938,0 -17.735,-10.637 -17.735,-24.965 v -45.004 h -9.839 v 79.68" /><path
         id="path34"
         style="fill:#241f21;fill-opacity:1;fill-rule:nonzero;stroke:none"
         d="m 436.707,176.965 c 0.34,-11.719 7.977,-15.422 16.078,-15.422 6.145,0 14.477,1.84 14.477,11.875 0,10.156 -9.711,11.863 -19.574,14.785 -9.711,2.938 -19.551,7.258 -19.551,22.512 0,16.019 11.914,22.664 22.343,22.664 13.184,0 23.723,-5.566 24.543,-24.965 h -9.839 c -0.696,10.152 -7.422,13.387 -13.903,13.387 -5.898,0 -12.73,-2.16 -12.73,-10.156 0,-9.415 10.429,-10.957 19.57,-13.875 9.84,-2.918 19.567,-7.239 19.567,-22.665 0,-18.96 -13.329,-25.109 -25.473,-25.109 -13.434,0 -24.774,7.234 -25.367,26.969 h 9.859" /><path
         id="path36"
         style="fill:#241f21;fill-opacity:1;fill-rule:nonzero;stroke:none"
         d="m 502.215,231.512 h 11.933 v -11.547 h -11.933 v -49.469 c 0,-6.016 1.269,-7.09 7.402,-7.09 h 4.531 v -11.574 h -7.535 c -10.199,0 -14.238,2.773 -14.238,17.414 v 50.719 H 482.18 v 11.547 h 10.195 v 23.89 h 9.84 v -23.89" /><path
         id="path38"
         style="fill:#241f21;fill-opacity:1;fill-rule:nonzero;stroke:none"
         d="m 524.656,231.512 h 9.27 v -16.797 h 0.234 c 4.738,12.801 11.344,19.129 22.004,18.64 V 219.5 c -15.867,0 -21.66,-12.02 -21.66,-32.207 v -35.461 h -9.848 v 79.68" /><path
         id="path40"
         style="fill:#241f21;fill-opacity:1;fill-rule:nonzero;stroke:none"
         d="m 613.098,151.832 h -9.246 v 12.629 h -0.231 c -4.164,-9.856 -10.898,-14.465 -19.465,-14.465 -15.746,0 -20.582,12.012 -20.582,29.129 v 52.387 h 9.813 v -53.93 c 0,-9.711 4.64,-16.039 12.176,-16.039 11.925,0 17.726,10.641 17.726,24.969 v 45 h 9.809 v -79.68" /><path
         id="path42"
         style="fill:#241f21;fill-opacity:1;fill-rule:nonzero;stroke:none"
         d="m 627.914,231.512 h 9.266 v -11.696 h 0.238 c 4.395,8.926 11.109,13.539 19.336,13.539 7.297,0 14.008,-3.828 16.441,-13.539 4.039,8.461 11.106,13.539 18.739,13.539 11.937,0 19.918,-6.621 19.918,-23.101 v -58.422 h -9.829 v 52.238 c 0,9.887 -1.98,17.731 -11.585,17.731 -9.5,0 -15.641,-7.996 -15.641,-20.348 v -49.621 h -9.832 v 52.238 c 0,10.352 -2.445,17.731 -11.219,17.731 -11.699,0 -15.992,-14.321 -15.992,-20.348 v -49.621 h -9.84 v 79.68" /><path
         id="path44"
         style="fill:#241f21;fill-opacity:1;fill-rule:nonzero;stroke:none"
         d="m 768.207,199.313 c -0.457,12.484 -7.512,22.488 -17.238,22.488 -10.305,0 -16.446,-10.324 -17.141,-22.488 z m 9.504,-22.2 c -2.66,-17.558 -12.141,-27.117 -25.582,-27.117 -19.106,0 -28.137,17.563 -28.707,41.91 0,23.891 11.805,41.449 28.141,41.449 21.179,0 27.648,-26.343 27.082,-45.597 h -44.817 c -0.359,-13.875 5.57,-26.195 18.645,-26.195 8.097,0 13.797,5.226 15.507,15.55 h 9.731" /><path
         id="path46"
         style="fill:#241f21;fill-opacity:1;fill-rule:nonzero;stroke:none"
         d="m 788.82,231.512 h 9.246 v -12.629 h 0.239 c 4.164,9.859 10.894,14.472 19.465,14.472 15.742,0 20.574,-12.019 20.574,-29.113 v -52.41 h -9.828 v 53.949 c 0,9.692 -4.621,16.02 -12.145,16.02 -11.937,0 -17.711,-10.637 -17.711,-24.965 v -45.004 h -9.84 v 79.68" /><path
         id="path48"
         style="fill:#241f21;fill-opacity:1;fill-rule:nonzero;stroke:none"
         d="m 866.832,231.512 h 11.93 v -11.547 h -11.93 v -49.469 c 0,-6.016 1.273,-7.09 7.402,-7.09 h 4.528 v -11.574 h -7.528 c -10.175,0 -14.238,2.773 -14.238,17.414 v 50.719 H 846.82 v 11.547 h 10.176 v 23.89 h 9.836 v -23.89" /><path
         id="path50"
         style="fill:#241f21;fill-opacity:1;fill-rule:nonzero;stroke:none"
         d="m 895.652,176.965 c 0.36,-11.719 7.989,-15.422 16.094,-15.422 6.133,0 14.477,1.84 14.477,11.875 0,10.156 -9.739,11.863 -19.575,14.785 -9.726,2.938 -19.574,7.258 -19.574,22.512 0,16.019 11.946,22.664 22.371,22.664 13.176,0 23.715,-5.566 24.52,-24.965 h -9.844 c -0.676,10.152 -7.402,13.387 -13.871,13.387 -5.902,0 -12.738,-2.16 -12.738,-10.156 0,-9.415 10.406,-10.957 19.574,-13.875 9.836,-2.918 19.547,-7.239 19.547,-22.665 0,-18.96 -13.309,-25.109 -25.457,-25.109 -13.434,0 -24.781,7.234 -25.34,26.969 h 9.816" /><path
         id="path52"
         style="fill:#241f21;fill-opacity:1;fill-rule:nonzero;stroke:none"
         d="m 21.2266,14.2852 h 28.0117 c 9.668,0 15.789,7.7031 15.789,19.7187 0,14.3477 -8.8281,18.3438 -18.2656,18.3438 H 21.2266 Z m 0,50.3984 h 22.3593 c 12.7227,0 17.9063,6.0078 17.9063,17.5625 0,15.2539 -8.2344,17.4141 -17.9063,17.4141 H 21.2266 Z M 10.0352,111.992 h 30.5039 c 7.4101,0 17.1797,0 22.2382,-4.019 5.5469,-4.317 9.8868,-12.1644 9.8868,-22.9574 0,-11.6992 -4.7032,-20.5039 -12.4649,-24.6679 V 60.0469 C 70.5664,57.2734 76.2148,47.0977 76.2148,33.543 76.2148,17.3516 67.375,1.94922 50.6563,1.94922 H 10.0352 V 111.992" /><path
         id="path54"
         style="fill:#241f21;fill-opacity:1;fill-rule:nonzero;stroke:none"
         d="M 139.414,1.94922 H 130 V 14.582 h -0.234 C 125.535,4.71875 118.703,0.0898438 109.988,0.0898438 93.9688,0.0898438 89.0195,12.125 89.0195,29.2227 V 81.6289 H 99.0234 V 27.6953 c 0,-9.7265 4.7186,-16.0351 12.3786,-16.0351 12.125,0 18.012,10.6211 18.012,24.9648 v 45.0039 h 10 V 1.94922" /><path
         id="path56"
         style="fill:#241f21;fill-opacity:1;fill-rule:nonzero;stroke:none"
         d="m 154.121,81.6289 h 9.41 V 64.832 h 0.235 c 4.828,12.7774 11.554,19.1055 22.363,18.6368 V 69.6172 c -16.117,0 -21.996,-12.043 -21.996,-32.2305 V 1.94922 H 154.121 V 81.6289" /><path
         id="path58"
         style="fill:#241f21;fill-opacity:1;fill-rule:nonzero;stroke:none"
         d="m 193.309,81.6289 h 9.414 V 64.832 h 0.234 c 4.82,12.7774 11.551,19.1055 22.383,18.6368 V 69.6172 c -16.149,0 -22.027,-12.043 -22.027,-32.2305 V 1.94922 H 193.309 V 81.6289" /><path
         id="path60"
         style="fill:#241f21;fill-opacity:1;fill-rule:nonzero;stroke:none"
         d="m 224.746,38.6367 h 34 v 12.3125 h -34 z" /><path
         id="path62"
         style="fill:#241f21;fill-opacity:1;fill-rule:nonzero;stroke:none"
         d="m 285,14.2852 h 28.02 c 9.664,0 15.785,7.7031 15.785,19.7187 0,14.3477 -8.832,18.3438 -18.242,18.3438 H 285 Z m 0,50.3984 h 22.367 c 12.738,0 17.906,6.0078 17.906,17.5625 0,15.2539 -8.234,17.4141 -17.906,17.4141 H 285 Z m -11.164,47.3084 h 30.484 c 7.407,0 17.184,0 22.239,-4.019 5.543,-4.317 9.902,-12.1644 9.902,-22.9574 0,-11.6992 -4.719,-20.5039 -12.481,-24.6679 v -0.3008 c 10.368,-2.7735 15.993,-12.9492 15.993,-26.5039 0,-16.1914 -8.821,-31.59378 -25.539,-31.59378 H 273.836 V 111.992" /><path
         id="path64"
         style="fill:#241f21;fill-opacity:1;fill-rule:nonzero;stroke:none"
         d="m 352.43,81.6289 h 9.445 V 64.832 h 0.234 c 4.817,12.7774 11.528,19.1055 22.36,18.6368 V 69.6172 c -16.125,0 -22.008,-12.043 -22.008,-32.2305 V 1.94922 H 352.43 V 81.6289" /><path
         id="path66"
         style="fill:#241f21;fill-opacity:1;fill-rule:nonzero;stroke:none"
         d="m 416.141,11.6602 c 10.476,0 18.961,10.7929 18.961,30.0468 0,19.418 -8.485,30.211 -18.961,30.211 -10.465,0 -18.957,-10.793 -18.957,-30.211 0,-19.2539 8.492,-30.0468 18.957,-30.0468 z m 0,71.8086 c 19.297,0 29.531,-18.3243 29.531,-41.7618 0,-23.2773 -10.234,-41.6171562 -29.531,-41.6171562 -19.317,0 -29.559,18.3398562 -29.559,41.6171562 0,23.4375 10.242,41.7618 29.559,41.7618" /><path
         id="path68"
         style="fill:#241f21;fill-opacity:1;fill-rule:nonzero;stroke:none"
         d="M 517.723,1.94922 H 507.125 L 494.77,65.2773 h -0.235 L 482.281,1.94922 H 471.449 L 451.898,81.6289 h 11.071 l 13.773,-65.1875 h 0.25 l 12.227,65.1875 h 10.965 l 12.711,-65.1875 h 0.23 l 13.652,65.1875 h 10.364 L 517.723,1.94922" /><path
         id="path70"
         style="fill:#241f21;fill-opacity:1;fill-rule:nonzero;stroke:none"
         d="m 546.668,81.6289 h 9.41 V 68.9961 h 0.235 c 4.234,9.8672 11.062,14.4727 19.785,14.4727 16.011,0 20.949,-12.0157 20.949,-29.1133 V 1.94922 H 587.039 V 55.8828 c 0,9.7149 -4.703,16.0352 -12.363,16.0352 -12.125,0 -18.008,-10.6407 -18.008,-24.9649 V 1.94922 h -10 V 81.6289" /><path
         id="path72"
         style="fill:#241f21;fill-opacity:1;fill-rule:nonzero;stroke:none"
         d="m 660.965,47.418 h 28.48 l -14.007,51.3086 h -0.235 z m 8.355,64.574 h 12.36 L 714.535,1.94922 H 702.18 L 692.973,35.0859 H 657.434 L 648.012,1.94922 H 636.461 L 669.32,111.992" /><path
         id="path74"
         style="fill:#241f21;fill-opacity:1;fill-rule:nonzero;stroke:none"
         d="M 771.492,1.94922 H 762.07 V 14.582 h -0.25 C 757.594,4.71875 750.766,0.0898438 742.059,0.0898438 726.047,0.0898438 721.098,12.125 721.098,29.2227 v 52.4062 h 10.004 V 27.6953 c 0,-9.7265 4.714,-16.0351 12.359,-16.0351 12.121,0 18.027,10.6211 18.027,24.9648 v 45.0039 h 10.004 V 1.94922" /><path
         id="path76"
         style="fill:#241f21;fill-opacity:1;fill-rule:nonzero;stroke:none"
         d="m 812.684,11.6602 c 13.437,0 18.597,15.1093 18.597,30.0468 0,15.7188 -5.414,30.211 -19.191,30.211 -13.641,0 -18.258,-15.2539 -18.258,-30.8242 0,-14.9415 5.902,-29.4336 18.852,-29.4336 z M 840.957,1.94922 H 830.926 V 12.7422 h -0.235 C 827.414,3.96094 819.629,0.0898438 811.273,0.0898438 c -18.71,0 -28.015,19.4218562 -28.015,41.9335562 0,22.4883 9.183,41.4454 27.777,41.4454 6.242,0 15.192,-3.0665 19.656,-12.4805 h 0.235 v 41.0037 h 10.031 V 1.94922" /><path
         id="path78"
         style="fill:#241f21;fill-opacity:1;fill-rule:nonzero;stroke:none"
         d="m 856.93,81.6289 h 10.004 V 1.94922 H 856.93 Z m 10.004,14.3477 H 856.93 v 16.0154 h 10.004 V 95.9766" /><path
         id="path80"
         style="fill:#241f21;fill-opacity:1;fill-rule:nonzero;stroke:none"
         d="m 908.73,11.6602 c 10.461,0 18.954,10.7929 18.954,30.0468 0,19.418 -8.493,30.211 -18.954,30.211 -10.484,0 -18.96,-10.793 -18.96,-30.211 0,-19.2539 8.476,-30.0468 18.96,-30.0468 z m 0,71.8086 c 19.286,0 29.555,-18.3243 29.555,-41.7618 0,-23.2773 -10.269,-41.6171562 -29.555,-41.6171562 -19.328,0 -29.558,18.3398562 -29.558,41.6171562 0,23.4375 10.23,41.7618 29.558,41.7618" /></g></g></svg>