<?xml version="1.0" encoding="UTF-8" standalone="no"?>
<svg
   xmlns:dc="http://purl.org/dc/elements/1.1/"
   xmlns:cc="http://creativecommons.org/ns#"
   xmlns:rdf="http://www.w3.org/1999/02/22-rdf-syntax-ns#"
   xmlns:svg="http://www.w3.org/2000/svg"
   xmlns="http://www.w3.org/2000/svg"
   viewBox="0 0 25.919786 22.720347"
   height="22.720346"
   width="25.919786"
   xml:space="preserve"
   id="svg2"
   version="1.1"><metadata
     id="metadata8"><rdf:RDF><cc:Work
         rdf:about=""><dc:format>image/svg+xml</dc:format><dc:type
           rdf:resource="http://purl.org/dc/dcmitype/StillImage" /></cc:Work></rdf:RDF></metadata><defs
     id="defs6" /><g
     transform="matrix(1.3333333,0,0,-1.3333333,-2.0802133,24.640133)"
     id="g10"><g
       transform="scale(0.1)"
       id="g12"><path
         id="path14"
         style="fill:#231f20;fill-opacity:1;fill-rule:evenodd;stroke:none"
         d="M 114,184.801 15.6016,14.3984 H 210" /><path
         id="path16"
         style="fill:#ffffff;fill-opacity:1;fill-rule:evenodd;stroke:none"
         d="M 102,50.3984 V 45.5977 L 92.3984,36 H 87.6016 L 85.1992,33.5977 82.8008,36 H 75.6016 L 73.1992,38.3984 70.8008,43.1992 66,50.3984" /><path
         id="path18"
         style="fill:none;stroke:#231f20;stroke-width:9.60000038;stroke-linecap:round;stroke-linejoin:round;stroke-miterlimit:10;stroke-dasharray:none;stroke-opacity:1"
         d="M 102,50.3984 V 45.5977 L 92.3984,36 H 87.6016 L 85.1992,33.5977 82.8008,36 H 75.6016 L 73.1992,38.3984 70.8008,43.1992 66,50.3984 Z" /><path
         id="path20"
         style="fill:none;stroke:#ffffff;stroke-width:9.60000038;stroke-linecap:round;stroke-linejoin:round;stroke-miterlimit:10;stroke-dasharray:none;stroke-opacity:1"
         d="M 102,50.3984 V 48 L 99.6016,45.5977 V 43.1992 L 94.8008,38.3984 H 92.3984 V 36 H 78 l -2.3984,2.3984 h -2.4024 v 2.4024 h -2.3984 v 2.3984 l -2.4024,2.3985 V 48 L 66,50.3984 Z" /><path
         id="path22"
         style="fill:#ffffff;fill-opacity:1;fill-rule:evenodd;stroke:none"
         d="m 111.602,98.3984 v 0 2.40234 0 z" /><path
         id="path24"
         style="fill:none;stroke:#ffffff;stroke-width:9.60000038;stroke-linecap:round;stroke-linejoin:round;stroke-miterlimit:10;stroke-dasharray:none;stroke-opacity:1"
         d="M 111.602,100.801 V 98.3984 Z" /><path
         id="path26"
         style="fill:#ffffff;fill-opacity:1;fill-rule:evenodd;stroke:none"
         d="M 111.602,127.199 V 100.801" /><path
         id="path28"
         style="fill:none;stroke:#ffffff;stroke-width:9.60000038;stroke-linecap:round;stroke-linejoin:round;stroke-miterlimit:10;stroke-dasharray:none;stroke-opacity:1"
         d="M 111.602,127.199 V 100.801 Z" /><path
         id="path30"
         style="fill:none;stroke:#ffffff;stroke-width:9.60000038;stroke-linecap:round;stroke-linejoin:round;stroke-miterlimit:10;stroke-dasharray:none;stroke-opacity:1"
         d="M 111.602,127.199 Z" /><path
         id="path32"
         style="fill:#ffffff;fill-opacity:1;fill-rule:evenodd;stroke:none"
         d="m 78,103.199 h 2.39844 v 0 z" /><path
         id="path34"
         style="fill:none;stroke:#ffffff;stroke-width:9.60000038;stroke-linecap:round;stroke-linejoin:round;stroke-miterlimit:10;stroke-dasharray:none;stroke-opacity:1"
         d="M 80.3984,103.199 H 78 v 0 z" /><path
         id="path36"
         style="fill:#ffffff;fill-opacity:1;fill-rule:evenodd;stroke:none"
         d="M 145.199,103.199 H 80.3984" /><path
         id="path38"
         style="fill:none;stroke:#ffffff;stroke-width:9.60000038;stroke-linecap:round;stroke-linejoin:round;stroke-miterlimit:10;stroke-dasharray:none;stroke-opacity:1"
         d="M 145.199,103.199 H 80.3984 Z" /><path
         id="path40"
         style="fill:none;stroke:#ffffff;stroke-width:9.60000038;stroke-linecap:round;stroke-linejoin:round;stroke-miterlimit:10;stroke-dasharray:none;stroke-opacity:1"
         d="M 145.199,103.199 Z" /><path
         id="path42"
         style="fill:#ffffff;fill-opacity:1;fill-rule:evenodd;stroke:none"
         d="m 121.199,50.3984 h 2.403" /><path
         id="path44"
         style="fill:none;stroke:#ffffff;stroke-width:9.60000038;stroke-linecap:round;stroke-linejoin:round;stroke-miterlimit:10;stroke-dasharray:none;stroke-opacity:1"
         d="m 121.199,50.3984 h 2.403 z" /><path
         id="path46"
         style="fill:#ffffff;fill-opacity:1;fill-rule:evenodd;stroke:none"
         d="m 140.398,103.199 v 0 L 121.199,50.3984 h 2.403" /><path
         id="path48"
         style="fill:none;stroke:#ffffff;stroke-width:9.60000038;stroke-linecap:round;stroke-linejoin:round;stroke-miterlimit:10;stroke-dasharray:none;stroke-opacity:1"
         d="m 140.398,103.199 v 0 L 121.199,50.3984 h 2.403 z" /><path
         id="path50"
         style="fill:#ffffff;fill-opacity:1;fill-rule:evenodd;stroke:none"
         d="m 157.199,50.3984 h 2.403 v 0 l -19.204,52.8006" /><path
         id="path52"
         style="fill:none;stroke:#ffffff;stroke-width:9.60000038;stroke-linecap:round;stroke-linejoin:round;stroke-miterlimit:10;stroke-dasharray:none;stroke-opacity:1"
         d="m 157.199,50.3984 h 2.403 v 0 l -19.204,52.8006 z" /><path
         id="path54"
         style="fill:#ffffff;fill-opacity:1;fill-rule:evenodd;stroke:none"
         d="m 157.199,50.3984 h 2.403" /><path
         id="path56"
         style="fill:none;stroke:#ffffff;stroke-width:9.60000038;stroke-linecap:round;stroke-linejoin:round;stroke-miterlimit:10;stroke-dasharray:none;stroke-opacity:1"
         d="m 157.199,50.3984 h 2.403 z" /><path
         id="path58"
         style="fill:none;stroke:#ffffff;stroke-width:9.60000038;stroke-linecap:round;stroke-linejoin:round;stroke-miterlimit:10;stroke-dasharray:none;stroke-opacity:1"
         d="M 66,50.3984 Z" /><path
         id="path60"
         style="fill:#ffffff;fill-opacity:1;fill-rule:evenodd;stroke:none"
         d="m 85.1992,103.199 v 0 L 66,50.3984" /><path
         id="path62"
         style="fill:none;stroke:#ffffff;stroke-width:9.60000038;stroke-linecap:round;stroke-linejoin:round;stroke-miterlimit:10;stroke-dasharray:none;stroke-opacity:1"
         d="m 85.1992,103.199 v 0 L 66,50.3984 Z" /><path
         id="path64"
         style="fill:#ffffff;fill-opacity:1;fill-rule:evenodd;stroke:none"
         d="m 102,50.3984 v 0 L 85.1992,103.199" /><path
         id="path66"
         style="fill:none;stroke:#ffffff;stroke-width:9.60000038;stroke-linecap:round;stroke-linejoin:round;stroke-miterlimit:10;stroke-dasharray:none;stroke-opacity:1"
         d="m 102,50.3984 v 0 L 85.1992,103.199 Z" /><path
         id="path68"
         style="fill:none;stroke:#ffffff;stroke-width:9.60000038;stroke-linecap:round;stroke-linejoin:round;stroke-miterlimit:10;stroke-dasharray:none;stroke-opacity:1"
         d="M 102,50.3984 Z" /><path
         id="path70"
         style="fill:#ffffff;fill-opacity:1;fill-rule:evenodd;stroke:none"
         d="m 159.602,50.3984 -2.403,-4.8007 v 0 l -2.398,-2.3985 V 40.8008 L 150,36 h -7.199 L 140.398,33.5977 138,36 h -4.801 l -7.199,7.1992 -2.398,7.1992" /><path
         id="path72"
         style="fill:none;stroke:#231f20;stroke-width:9.60000038;stroke-linecap:round;stroke-linejoin:round;stroke-miterlimit:10;stroke-dasharray:none;stroke-opacity:1"
         d="m 159.602,50.3984 -2.403,-4.8007 v 0 l -2.398,-2.3985 V 40.8008 L 150,36 h -7.199 L 140.398,33.5977 138,36 h -4.801 l -7.199,7.1992 -2.398,7.1992 z" /><path
         id="path74"
         style="fill:none;stroke:#ffffff;stroke-width:9.60000038;stroke-linecap:round;stroke-linejoin:round;stroke-miterlimit:10;stroke-dasharray:none;stroke-opacity:1"
         d="M 159.602,50.3984 157.199,48 v -2.4023 l -2.398,-2.3985 v -2.3984 h -2.403 V 38.3984 H 150 L 147.602,36 h -14.403 v 2.3984 h -2.398 l -7.199,7.1993 v 4.8007 z" /><path
         id="path76"
         style="fill:#ffffff;fill-opacity:1;fill-rule:evenodd;stroke:none"
         d="m 121.199,50.3984 h 2.403" /><path
         id="path78"
         style="fill:none;stroke:#ffffff;stroke-width:9.60000038;stroke-linecap:round;stroke-linejoin:round;stroke-miterlimit:10;stroke-dasharray:none;stroke-opacity:1"
         d="m 121.199,50.3984 h 2.403 z" /><path
         id="path80"
         style="fill:none;stroke:#ffffff;stroke-width:9.60000038;stroke-linecap:round;stroke-linejoin:round;stroke-miterlimit:10;stroke-dasharray:none;stroke-opacity:1"
         d="M 159.602,50.3984 Z" /></g></g></svg>