<?xml version="1.0" encoding="UTF-8" standalone="no"?>
<svg
   xmlns:dc="http://purl.org/dc/elements/1.1/"
   xmlns:cc="http://creativecommons.org/ns#"
   xmlns:rdf="http://www.w3.org/1999/02/22-rdf-syntax-ns#"
   xmlns:svg="http://www.w3.org/2000/svg"
   xmlns="http://www.w3.org/2000/svg"
   viewBox="0 0 520.45936 724.4632"
   height="724.4632"
   width="520.45935"
   xml:space="preserve"
   id="svg2"
   version="1.1"><metadata
     id="metadata8"><rdf:RDF><cc:Work
         rdf:about=""><dc:format>image/svg+xml</dc:format><dc:type
           rdf:resource="http://purl.org/dc/dcmitype/StillImage" /></cc:Work></rdf:RDF></metadata><defs
     id="defs6" /><g
     transform="matrix(1.3333333,0,0,-1.3333333,0.01586942,724.48797)"
     id="g10"><g
       transform="scale(0.1)"
       id="g12"><g
         transform="scale(10)"
         id="g14"><text
           id="text18"
           style="font-variant:normal;font-weight:bold;font-size:31.99969482px;font-family:Arial;-inkscape-font-specification:ArialMT-Bold;writing-mode:lr-tb;fill:#e2e2e2;fill-opacity:1;fill-rule:nonzero;stroke:none"
           transform="matrix(0.544655,0.83866,0.83866,-0.544655,107.779,10.277)"><tspan
             id="tspan16"
             y="0"
             x="0 19.546583 28.442497 37.338413 60.43681 79.983391 99.529648 110.18555 119.08146 138.62282 156.42001 175.9666 186.6225 195.51842 213.31024 231.09164 257.77942 280.88828 303.99765 334.80795 357.91678 375.71432 393.51175 404.16763 416.62091 425.51685 443.30865 453.96457 462.86047 482.40152 501.94812">TI Confidential–NDARestrictions</tspan></text>
</g><g
         transform="scale(10)"
         id="g20"><text
           id="text24"
           style="font-variant:normal;font-weight:bold;font-size:95.99988556px;font-family:Arial;-inkscape-font-specification:ArialMT-Bold;writing-mode:lr-tb;fill:#e0e1e2;fill-opacity:1;fill-rule:nonzero;stroke:none"
           transform="matrix(0.544655,0.83866,0.83866,-0.544655,53.9461,-5.75313)"><tspan
             id="tspan22"
             y="0"
             x="0 69.327904 138.65581 207.98372 266.62366 351.93561 426.60733 495.93524 545.75916">DRAFTONLY</tspan></text>
</g><path
         id="path26"
         style="fill:none;stroke:#e9e8e8;stroke-width:2.16000009;stroke-linecap:round;stroke-linejoin:round;stroke-miterlimit:2.61313009;stroke-dasharray:none;stroke-opacity:1"
         d="M 0.960938,375.5 138.945,588.125 c 30.828,47.516 58.094,82.469 82.344,102.203 31.625,27.563 68.156,45.047 109.078,51.688 40.656,7.968 84.078,6.093 129.485,-5.063 44.093,-11.437 94.187,-34.797 148.156,-69.812 47.515,-30.828 84.125,-62.594 110.906,-97.157 32.484,-41.671 53.25,-83.765 62.578,-127.593 6.25,-32.672 3.781,-69.985 -7.406,-111.938 -8.688,-31 -26.609,-67.437 -54.313,-110.125 L 577.617,1.26563 Z m 173.234062,53.531 381.75,-247.734 56.453,86.984 c 20.907,32.219 34.454,56.594 39.829,73.719 7.187,21.656 9.062,42.188 6.156,62.391 -3.438,19.406 -15.156,41.89 -36.235,65.859 -20.546,24.781 -53.359,51.813 -97.656,80.547 -44.297,28.75 -81.562,47.187 -110.125,54.312 -28.875,8.422 -54.703,9.157 -77.297,4.36 -22.281,-6.141 -42.64,-18.11 -61.593,-36.703 -14.469,-13.5 -36.985,-44.672 -67.297,-91.391 z" /><path
         id="path28"
         style="fill:none;stroke:#e9e8e8;stroke-width:2.16000009;stroke-linecap:round;stroke-linejoin:round;stroke-miterlimit:2.61313009;stroke-dasharray:none;stroke-opacity:1"
         d="M 955.215,582.691 378.559,956.926 537.965,1202.57 c 39.734,61.22 73.828,103.17 102.062,123.76 28.766,21.39 61.938,31.92 99.485,31.58 37.547,-0.33 72.578,-11.62 107.203,-34.09 42.687,-27.71 70.578,-64.1 82.562,-107.36 11.453,-44.08 4.61,-93.42 -20.547,-148.07 30.704,15.57 60.391,26.05 88.563,30.66 28.167,4.61 73.707,5.97 136.297,5.42 l 158.22,-3.11 -90.42,-139.325 -179.47,-1.437 c -64.971,-1.313 -106.236,-3.172 -124.815,-7.125 -19.39,-3.438 -34.781,-9.485 -46.64,-18.953 -12.391,-10.282 -27.344,-28.032 -45.125,-55.407 L 790.184,855.754 1031,699.473 Z m -256.844,332.641 55.922,86.168 c 36.078,55.58 56.641,92.58 60.703,109.41 4.063,16.83 3.313,33.33 -3.25,47.91 -6.859,15.87 -18.734,29.32 -35.656,40.29 -19.328,12.55 -38.578,18.18 -57.453,15.55 -18.078,-3.16 -35.532,-12.44 -51.297,-29.67 -6.547,-8.33 -26.172,-36.81 -56.485,-83.53 l -59.062,-91 z" /><path
         id="path30"
         style="fill:none;stroke:#e9e8e8;stroke-width:2.16000009;stroke-linecap:round;stroke-linejoin:round;stroke-miterlimit:2.61313009;stroke-dasharray:none;stroke-opacity:1"
         d="m 1669.94,1683.59 -81.55,-125.64 -163.69,35.26 -150,-231.16 99.93,-133.51 -79.97,-123.22 -431.363,598.14 79.969,123.22 z m -367.25,-64.99 -265.16,58.77 162.72,-216.63 z" /><path
         id="path32"
         style="fill:none;stroke:#e9e8e8;stroke-width:2.16000009;stroke-linecap:round;stroke-linejoin:round;stroke-miterlimit:2.61313009;stroke-dasharray:none;stroke-opacity:1"
         d="m 1710.41,1745.54 -576.66,374.24 257.16,396.25 97.45,-63.25 -181.37,-279.47 136.9,-88.85 156.8,241.61 97.45,-63.25 -156.79,-241.61 244.84,-158.89 z" /><path
         id="path34"
         style="fill:none;stroke:#e9e8e8;stroke-width:2.16000009;stroke-linecap:round;stroke-linejoin:round;stroke-miterlimit:2.61313009;stroke-dasharray:none;stroke-opacity:1"
         d="m 2113.94,2367 -479.21,310.99 -110.79,-170.75 -97.46,63.25 296.88,457.47 97.45,-63.25 -110.28,-169.94 479.2,-310.98 z" /><path
         id="path36"
         style="fill:none;stroke:#e9e8e8;stroke-width:2.16000009;stroke-linecap:round;stroke-linejoin:round;stroke-miterlimit:2.61313009;stroke-dasharray:none;stroke-opacity:1"
         d="m 2193.66,3113.67 c -58.8,38.14 -102.18,78.89 -130.94,122.73 -20.64,31.72 -35.72,66.69 -43.92,105.21 -8.72,37.7 -10.24,74.17 -4.25,108.06 8.2,46.17 27.62,91.95 58.47,139.48 54.87,84.56 125.87,135.77 211.15,152.53 86.08,16.25 176.11,-5.54 270.33,-66.7 93.44,-60.62 149.72,-132.64 169.94,-217.87 19.42,-84.71 2.09,-169.61 -52.78,-254.18 -55.94,-86.18 -126.94,-137.39 -212.21,-154.15 -84.76,-15.96 -173.17,4.78 -265.79,64.89 z m 73.86,122.62 c 66.04,-42.86 125.09,-59.45 178.26,-51.61 53.69,8.66 95.69,36.35 125.47,82.25 30.31,46.72 37.98,95.53 24.83,147.58 -14.5,51.75 -55.03,98.66 -122.69,142.56 -66.05,42.86 -124.58,60.24 -175.61,52.16 -51.83,-7.56 -93.03,-35.77 -124.39,-84.09 -30.83,-47.52 -40.33,-97.44 -26.14,-147.86 13.7,-51.22 54.23,-98.13 120.27,-140.99 z" /><path
         id="path38"
         style="fill:none;stroke:#e9e8e8;stroke-width:2.16000009;stroke-linecap:round;stroke-linejoin:round;stroke-miterlimit:2.61313009;stroke-dasharray:none;stroke-opacity:1"
         d="m 2901.16,3579.05 -576.66,374.24 73.17,112.75 540.77,-13.3 -386.58,250.89 70.03,107.92 576.66,-374.23 -75.78,-116.78 -530.93,12.6 379.35,-246.17 z" /><path
         id="path40"
         style="fill:none;stroke:#e9e8e8;stroke-width:2.16000009;stroke-linecap:round;stroke-linejoin:round;stroke-miterlimit:2.61313009;stroke-dasharray:none;stroke-opacity:1"
         d="m 3280.85,4163.7 -571.83,371.09 75.78,116.78 474.38,-307.84 187.64,289.14 97.45,-63.25 z" /><path
         id="path42"
         style="fill:none;stroke:#e9e8e8;stroke-width:2.16000009;stroke-linecap:round;stroke-linejoin:round;stroke-miterlimit:2.61313009;stroke-dasharray:none;stroke-opacity:1"
         d="m 3648.39,4729.74 -242.43,157.33 -471.7,5.09 88.86,136.92 316.25,-11.81 -141.69,280.81 87.28,134.5 197.58,-429.26 241.63,-156.8 z" /></g></g></svg>