<?xml version="1.0" encoding="UTF-8" standalone="no"?>
<svg
   xmlns:dc="http://purl.org/dc/elements/1.1/"
   xmlns:cc="http://creativecommons.org/ns#"
   xmlns:rdf="http://www.w3.org/1999/02/22-rdf-syntax-ns#"
   xmlns:svg="http://www.w3.org/2000/svg"
   xmlns="http://www.w3.org/2000/svg"
   viewBox="0 0 66.981148 20.555801"
   height="20.555801"
   width="66.981148"
   xml:space="preserve"
   id="svg2"
   version="1.1"><metadata
     id="metadata8"><rdf:RDF><cc:Work
         rdf:about=""><dc:format>image/svg+xml</dc:format><dc:type
           rdf:resource="http://purl.org/dc/dcmitype/StillImage" /></cc:Work></rdf:RDF></metadata><defs
     id="defs6" /><g
     transform="matrix(1.3333333,0,0,-1.3333333,-1.2999466,21.355546)"
     id="g10"><g
       transform="scale(0.1)"
       id="g12"><g
         transform="scale(10)"
         id="g14"><text
           id="text20"
           style="font-variant:normal;font-weight:normal;font-size:7.49980021px;font-family:Arial;-inkscape-font-specification:ArialMT;writing-mode:lr-tb;fill:#000000;fill-opacity:1;fill-rule:nonzero;stroke:none"
           transform="matrix(1.00004,0,0,-1,16.923,10.5566)"><tspan
             id="tspan16"
             y="0"
             x="0 5.4148555 9.5847445 11.669689 15.839578 18.337011 22.506899 26.676788 30.426689">Reference</tspan><tspan
             id="tspan18"
             y="8.3784647"
             x="0 5.4148555 9.5847445 13.334644 14.9996 19.169489">Design</tspan></text>
</g><path
         id="path22"
         style="fill:none;stroke:#d60000;stroke-width:12.50080013;stroke-linecap:round;stroke-linejoin:round;stroke-miterlimit:2.61313009;stroke-dasharray:none;stroke-opacity:1"
         d="M 93.1641,152.367 H 16 V 28.5352 h 112.043 v 88.9528 z" /><path
         id="path24"
         style="fill:none;stroke:#d60000;stroke-width:8.50109959;stroke-linecap:butt;stroke-linejoin:round;stroke-miterlimit:2.61313009;stroke-dasharray:none;stroke-opacity:1"
         d="M 60.168,106.383 V 54.4375" /><path
         id="path26"
         style="fill:none;stroke:#d60000;stroke-width:8.50109959;stroke-linecap:round;stroke-linejoin:round;stroke-miterlimit:2.61313009;stroke-dasharray:none;stroke-opacity:1"
         d="m 60.168,81.0391 h 64.973" /><path
         id="path28"
         style="fill:#d60000;fill-opacity:1;fill-rule:evenodd;stroke:none"
         d="m 60.168,93.0586 c -6.6094,0 -12.0157,-5.3984 -12.0157,-12.0195 0,-6.6211 5.4063,-12.0196 12.0157,-12.0196 6.6133,0 12.0195,5.3985 12.0195,12.0196 0,6.6211 -5.4062,12.0195 -12.0195,12.0195" /><path
         id="path30"
         style="fill:#d60000;fill-opacity:1;fill-rule:nonzero;stroke:none"
         d="M 77.2148,57.875 60.1641,41.3633 43.1211,57.875 h 34.0937" /><path
         id="path32"
         style="fill:#d60000;fill-opacity:1;fill-rule:nonzero;stroke:none"
         d="m 64.4023,105.043 v 4.266 l -5.3906,3.535 19.5391,9.984 -18.832,10.086 18.832,9.488 -9.0117,4.891 H 52.9609 l 8.5508,-4.633 -18.9179,-9.539 18.9179,-10.129 -18.207,-9.308 13.1992,-8.641 h 7.8984" /><path
         id="path34"
         style="fill:#d60000;fill-opacity:1;fill-rule:evenodd;stroke:none"
         d="m 113.434,121.484 c 0,8.547 -6.926,15.469 -15.4692,15.469 -8.5429,0 -15.4687,-6.922 -15.4687,-15.469 0,-8.543 6.9258,-15.464 15.4687,-15.464 8.5432,0 15.4692,6.921 15.4692,15.464" /><path
         id="path36"
         style="fill:#d60000;fill-opacity:1;fill-rule:evenodd;stroke:none"
         d="m 97.9648,106.02 -15.4687,15.464 v 30.883 h 10.668 L 128.043,117.488 V 106.02 H 97.9648" /></g></g></svg>