<?xml version="1.0" encoding="UTF-8" standalone="no"?>
<svg
   xmlns:dc="http://purl.org/dc/elements/1.1/"
   xmlns:cc="http://creativecommons.org/ns#"
   xmlns:rdf="http://www.w3.org/1999/02/22-rdf-syntax-ns#"
   xmlns:svg="http://www.w3.org/2000/svg"
   xmlns="http://www.w3.org/2000/svg"
   viewBox="0 0 75.770638 20.9084"
   height="20.9084"
   width="75.770638"
   xml:space="preserve"
   id="svg2"
   version="1.1"><metadata
     id="metadata8"><rdf:RDF><cc:Work
         rdf:about=""><dc:format>image/svg+xml</dc:format><dc:type
           rdf:resource="http://purl.org/dc/dcmitype/StillImage" /></cc:Work></rdf:RDF></metadata><defs
     id="defs6" /><g
     transform="matrix(1.3333333,0,0,-1.3333333,-0.79947865,21.708399)"
     id="g10"><g
       transform="scale(0.1)"
       id="g12"><g
         transform="scale(10)"
         id="g14"><text
           id="text20"
           style="font-variant:normal;font-weight:normal;font-size:7.49980021px;font-family:Arial;-inkscape-font-specification:ArialMT;writing-mode:lr-tb;fill:#000000;fill-opacity:1;fill-rule:nonzero;stroke:none"
           transform="matrix(1.00004,0,0,-1,19.573,10.6895)"><tspan
             id="tspan16"
             y="0"
             x="0 5.0023665 9.1722555 13.342144 17.512033 21.681921 24.179356 26.264299 28.349243">Support &amp;</tspan><tspan
             id="tspan18"
             y="8.3784647"
             x="0 5.4148555 9.5847445 15.832078 22.079411 26.2493 30.419189 32.084145 34.16909">Community</tspan></text>
</g><path
         id="path22"
         style="fill:#d60000;fill-opacity:1;fill-rule:evenodd;stroke:none"
         d="M 32.9961,162.813 H 135.074 c 14.871,0 27,-12.129 27,-26.997 V 57.5156 c 0,-14.8672 -12.133,-27 -27.004,-26.9961 H 32.9961 c -14.8711,0 -27.00001,12.1289 -27.00001,26.9961 v 78.3004 c 0,14.868 12.12891,26.997 27.00001,26.997" /><path
         id="path24"
         style="fill:#d60000;fill-opacity:1;fill-rule:evenodd;stroke:none"
         d="M 58.5859,30.5195 32.2656,30.5273 V 6 h 4.5547 l 21.7656,24.5195" /><path
         id="path26"
         style="fill:#ffffff;fill-opacity:1;fill-rule:evenodd;stroke:none"
         d="m 76.0625,114.996 c 0,10.25 -8.3125,18.559 -18.5625,18.559 -10.2461,0 -18.5547,-8.309 -18.5547,-18.559 0,-10.25 8.3086,-18.5585 18.5547,-18.5585 10.25,0 18.5625,8.3085 18.5625,18.5585" /><path
         id="path28"
         style="fill:#ffffff;fill-opacity:1;fill-rule:evenodd;stroke:none"
         d="m 131.941,110.07 c 0,7.586 -6.144,13.731 -13.73,13.731 -7.586,0 -13.734,-6.145 -13.734,-13.731 0,-7.586 6.148,-13.7341 13.734,-13.7341 7.586,0 13.73,6.1481 13.73,13.7341" /><path
         id="path30"
         style="fill:#ffffff;fill-opacity:1;fill-rule:evenodd;stroke:none"
         d="m 46.3008,84.3086 -4.2539,7.6133 H 35.0977 L 22.1055,58.9961 H 93.793 L 83.0352,91.9219 H 73.8516 L 68.9219,84.3086 H 46.3008" /><path
         id="path32"
         style="fill:#ffffff;fill-opacity:1;fill-rule:evenodd;stroke:none"
         d="m 141.402,68.7148 -5.047,23.2071 h -6.605 l -3.547,-7.1641 h -13.691 l -5.434,7.1641 h -5.898 l 3.972,-23.0625 36.25,-0.1446" /><path
         id="path34"
         style="fill:#ffffff;fill-opacity:1;fill-rule:evenodd;stroke:none"
         d="m 141.402,68.707 h -36.25 36.25" /></g></g></svg>