<?xml version="1.0" encoding="UTF-8" standalone="no"?>
<svg
   xmlns:dc="http://purl.org/dc/elements/1.1/"
   xmlns:cc="http://creativecommons.org/ns#"
   xmlns:rdf="http://www.w3.org/1999/02/22-rdf-syntax-ns#"
   xmlns:svg="http://www.w3.org/2000/svg"
   xmlns="http://www.w3.org/2000/svg"
   viewBox="0 0 128.44789 30.204687"
   height="30.204687"
   width="128.44789"
   xml:space="preserve"
   id="svg2"
   version="1.1"><metadata
     id="metadata8"><rdf:RDF><cc:Work
         rdf:about=""><dc:format>image/svg+xml</dc:format><dc:type
           rdf:resource="http://purl.org/dc/dcmitype/StillImage" /></cc:Work></rdf:RDF></metadata><defs
     id="defs6" /><g
     transform="matrix(1.3333333,0,0,-1.3333333,-0.01197917,30.216666)"
     id="g10"><g
       transform="scale(0.1)"
       id="g12"><path
         id="path14"
         style="fill:#231f20;fill-opacity:1;fill-rule:nonzero;stroke:none"
         d="m 271.066,173.906 v -61.758 c 0,-6.511 -3.304,-7.554 -6.531,-8.558 v -2.207 h 28.488 v 2.207 c -3.207,1.004 -6.566,2.047 -6.566,8.558 v 61.758 c 0,3.754 1.188,4.641 6.043,4.641 13.352,0 19.898,-0.242 24.652,-7.668 l 1.645,1.012 -5.359,15.777 h -69.465 l -5.364,-15.777 1.661,-1.012 c 5.765,7.309 10.269,7.668 24.753,7.668 4.911,0 6.043,-0.887 6.043,-4.641 z m 32.497,-8.816 c 4.199,-1.156 6.429,-2.172 6.429,-8.586 v -44.356 c 0,-6.511 -2.23,-7.554 -6.429,-8.558 v -2.207 h 53.785 l 6.14,15.414 -1.675,1.187 c -5.383,-7.089 -11.012,-8.754 -18.485,-8.754 h -13.855 c -4.368,0 -5.36,0.133 -5.36,4.375 v 18.5 h 16.797 c 6.547,0 7.547,-1.562 8.586,-5.398 h 2.578 v 18.492 h -2.578 c -1.039,-3.871 -2.039,-5.527 -8.586,-5.527 h -16.797 v 15.512 c 0,3.222 0.992,4.257 5.36,4.257 h 11.793 c 7.597,0 11.605,-1.941 17.355,-8.093 l 1.684,1.168 -5.407,14.777 h -51.335 z m 69.175,-7.59 16.45,-23.242 -15.532,-22.11 c -4.765,-6.648 -7.601,-7.554 -11.949,-8.558 v -2.207 h 24.895 v 2.207 c -4.735,0.89 -6.817,2.707 -3.602,7.73 l 10.895,16.996 11.437,-16.523 c 4.246,-6 -0.234,-7.672 -4.102,-8.203 v -2.207 h 45.063 v 2.207 c -4.496,0.777 -6.551,2.316 -4.227,8.441 L 445,119.75 h 26.969 l 2.824,-7.719 c 1.809,-4.988 1.156,-7.664 -4.094,-8.441 v -2.207 h 27.742 v 2.207 c -3.234,1.004 -6.179,3.742 -7.605,7.437 l -21.434,56.266 h -14.64 l -20.535,-52.414 c -2.161,-5.414 -4.192,-7.984 -6.356,-9.492 -1.68,1.105 -3.226,2.722 -5.32,5.64 l -18.031,25.621 14.558,20.586 c 3.852,5.512 7.074,6.7 10.899,7.856 v 2.203 h -23.469 v -2.203 c 4.867,-0.391 6.289,-3.09 3.461,-7.313 l -10.203,-15.066 -9.196,13.793 c -3.836,5.617 -1.004,7.918 3.239,8.586 v 2.203 h -31.211 v -2.203 c 4.371,-1.156 6.527,-2.453 10.14,-7.59 z m 86.012,-1.656 10.52,-28.766 h -21.504 z m 45.707,-54.461 c 0,1.062 1.02,3.211 2.297,3.211 2.961,-1.426 7.984,-4.356 17.223,-4.356 15.539,0 26.453,7.703 26.453,20.832 0,12.305 -6.813,17.293 -19.926,20.258 l -11.926,2.684 c -6.789,1.547 -9.015,3.445 -9.015,7.726 0,4.871 3.875,8.09 12.375,8.09 9.464,0 16.898,-4.515 22.312,-10.672 l 1.66,1.149 -4.855,16.988 h -3.117 c 0,-1.457 -0.61,-2.984 -1.907,-2.984 -2.847,1.527 -7.203,4.019 -14.636,4.019 -13.34,0 -23.739,-6.957 -23.739,-19.531 0,-9.652 5.754,-15.695 18.324,-18.516 l 11.34,-2.554 c 7.539,-1.668 10.227,-4.379 10.227,-9.102 0,-6.594 -5.203,-10.043 -13.832,-10.043 -12.078,0 -19.777,6.297 -26.059,13.617 l -1.683,-1.129 5.261,-19.687 z M 263.895,85.3398 c 4.011,-1.1601 7.21,-2.207 7.21,-8.621 V 12.0195 c 0,-6.56247 -3.199,-7.582 -7.21,-8.582 V 1.23047 h 29.773 V 3.4375 c -3.984,1 -7.172,2.01953 -7.172,8.582 v 64.6993 c 0,6.414 3.188,7.4609 7.172,8.621 v 2.1368 h -29.773 z m 81.777,-20.4453 c 3.836,-1.1367 6.027,-2.1445 6.027,-8.5507 V 29.3477 h -0.39 l -33.102,37.75 h -19.394 v -2.2032 c 3.843,-1.6328 6.41,-2.9023 6.41,-8.5507 V 12.0195 c 0,-6.16012 -2.164,-7.582 -6.41,-8.582 V 1.23047 h 21.953 V 3.4375 c -3.461,1 -6.782,2.42188 -6.782,8.582 v 38.2539 h 0.368 L 358.129,0.351563 h 2.293 V 56.3438 c 0,6.4062 3.207,7.414 5.785,8.5507 v 2.2032 h -20.535 z m 57.402,-23.7187 -11.941,2.6758 c -6.824,1.5429 -8.992,3.4414 -8.992,7.7187 0,4.8828 3.851,8.0938 12.281,8.0938 9.547,0 16.969,-4.5313 22.383,-10.6719 l 1.648,1.1562 -4.875,16.9493 h -3.066 c 0,-1.418 -0.664,-2.9532 -1.953,-2.9532 -2.797,1.5352 -7.161,3.9571 -14.645,3.9571 -13.336,0 -23.715,-6.8868 -23.715,-19.5 0,-9.6172 5.762,-15.6563 18.352,-18.4766 l 11.301,-2.5664 c 7.586,-1.6602 10.265,-4.3906 10.265,-9.0938 0,-6.5585 -5.281,-10.03902 -13.84,-10.03902 -12.082,0 -19.793,6.28512 -26.078,13.60552 l -1.672,-1.1133 5.278,-19.68753 h 3.191 c 0,1.01953 1.02,3.20703 2.305,3.20703 2.961,-1.39062 7.965,-4.3476562 17.215,-4.3476562 15.504,0 26.445,7.6718762 26.445,20.8281562 0,12.2929 -6.797,17.2851 -19.887,20.2578 z m 23.742,25.9219 -5.261,-16.9493 1.648,-1.1562 c 7.074,9.3711 8.992,10.25 18.356,10.25 3.207,0 4.254,-0.2383 4.254,-4.207 V 12.0195 c 0,-6.56247 -1.946,-7.582 -7.188,-8.582 V 1.23047 h 28.238 V 3.4375 c -5.121,1 -7.199,2.01953 -7.199,8.582 v 43.0157 c 0,3.9687 1.059,4.207 4.242,4.207 9.367,0 11.848,-0.8789 18.883,-10.25 l 1.672,1.1562 -5.246,16.9493 z m 114.399,-46.375 c -4.012,6.4453 -8.094,9.2851 -12.871,10.4062 v 0.4219 c 11.301,1.7851 17.734,7.7031 17.734,17.3242 0,12.8125 -10.281,18.2227 -26.82,18.2227 h -33.785 v -2.2032 c 4.238,-1.1367 6.414,-2.1445 6.414,-8.5507 V 12.0195 c 0,-6.56247 -2.176,-7.582 -6.414,-8.582 V 1.23047 h 27.59 V 3.4375 c -3.973,1 -6.653,2.01953 -6.653,8.582 v 16.4453 h 6.801 c 7.945,0 9.113,-3.2226 14.238,-13.9804 4.227,-8.8594 9.906,-14.3945562 20.594,-14.3945562 5.336,0 7.52,1.0234362 9.711,2.1601562 v 1.82422 c -8.617,1.26172 -11.438,8.33598 -16.539,16.64848 z m -23.52,15.4296 H 506.41 v 17.4571 c 0,4.207 1.016,5.3945 4.195,5.3945 h 7.325 c 7.972,0 12.59,-3.0898 12.59,-10.793 0,-8.082 -5.223,-12.0586 -12.825,-12.0586 z m 81.887,28.7422 c 3.356,-0.75 6.551,-2.1445 6.551,-8.5507 V 23.8086 c 0,-10.75 -4.106,-15.50782 -16.289,-15.50782 -12.989,0 -17.582,4.75782 -17.582,15.50782 v 32.5352 c 0,6.4062 2.445,7.8007 6.418,8.5507 v 2.2032 h -26.965 v -2.2032 c 3.957,-0.5976 6.527,-2.1445 6.527,-8.5507 V 22.8125 c 0,-17.59375 15.293,-22.7226562 29.649,-22.7226562 16.086,0 27.504,5.3671862 27.504,23.7187562 v 32.5352 c 0,6.4062 1.918,7.6523 5.906,8.5507 v 2.2032 h -21.719 z m 68.313,-40.539 -19.004,42.7422 H 625.27 v -2.2032 c 4.242,-1.1367 6.418,-2.1445 6.418,-8.5507 V 12.0195 c 0,-5.78512 -2.442,-7.31637 -6.418,-8.582 V 1.23047 h 20.945 V 3.4375 c -4.371,1.11719 -6.305,2.79688 -6.305,8.582 V 53.3711 L 663.629,0.199219 h 1.832 L 688.563,53.3711 V 12.0195 c 0,-6.56247 -2.817,-7.707 -6.043,-8.582 V 1.23047 h 26.972 V 3.4375 c -4.234,1 -6.426,2.01953 -6.426,8.582 v 44.3243 c 0,6.4062 2.192,7.414 6.426,8.5507 v 2.2032 h -23.238 z m 86.55,-15.26956 h -13.898 c -4.344,0 -5.375,0.09765 -5.375,4.32426 v 18.5 h 16.832 c 6.531,0 7.551,-1.5469 8.59,-5.3516 h 2.57 V 45.043 h -2.57 c -1.039,-3.8672 -2.059,-5.5391 -8.59,-5.5391 h -16.832 v 15.5313 c 0,3.2031 1.031,4.207 5.375,4.207 h 11.851 c 7.543,0 11.5,-1.9024 17.317,-8.0703 l 1.672,1.1758 -5.426,14.75 h -51.34 v -2.2032 c 4.258,-1.1367 6.418,-2.1445 6.418,-8.5507 V 12.0195 c 0,-6.56247 -2.16,-7.582 -6.418,-8.582 V 1.23047 h 53.793 l 6.152,15.38673 -1.66,1.1875 C 767.531,10.7461 761.84,9.08594 754.445,9.08594 Z M 822.98,64.8945 c 3.848,-1.1367 6.043,-2.1445 6.043,-8.5507 V 29.3477 h -0.41 l -33.09,37.75 h -19.414 v -2.2032 c 3.883,-1.6328 6.418,-2.9023 6.418,-8.5507 V 12.0195 c 0,-6.16012 -2.156,-7.582 -6.418,-8.582 V 1.23047 h 21.989 V 3.4375 c -3.489,1 -6.817,2.42188 -6.817,8.582 v 38.2539 h 0.364 L 835.441,0.351563 h 2.305 V 56.3438 c 0,6.4062 3.215,7.414 5.781,8.5507 v 2.2032 H 822.98 Z m 26.579,2.2032 -5.266,-16.9493 1.656,-1.1562 c 7.059,9.3711 9,10.25 18.36,10.25 3.195,0 4.242,-0.2383 4.242,-4.207 V 12.0195 c 0,-6.56247 -1.938,-7.582 -7.184,-8.582 V 1.23047 h 28.254 V 3.4375 c -5.148,1 -7.195,2.01953 -7.195,8.582 v 43.0157 c 0,3.9687 0.996,4.207 4.23,4.207 9.383,0 11.797,-0.8789 18.887,-10.25 l 1.637,1.1562 -5.254,16.9493 z m 93.957,-25.9219 -11.899,2.6758 c -6.797,1.5429 -9.039,3.4414 -9.039,7.7187 0,4.8828 3.848,8.0938 12.34,8.0938 9.496,0 16.945,-4.5313 22.348,-10.6719 l 1.656,1.1562 -4.895,16.9493 h -3.082 c 0,-1.418 -0.609,-2.9532 -1.898,-2.9532 -2.824,1.5352 -7.188,3.9571 -14.637,3.9571 -13.34,0 -23.722,-6.8868 -23.722,-19.5 0,-9.6172 5.746,-15.6563 18.3,-18.4766 l 11.305,-2.5664 c 7.582,-1.6602 10.297,-4.3906 10.297,-9.0938 0,-6.5585 -5.289,-10.03902 -13.875,-10.03902 -12.067,0 -19.789,6.28512 -26.027,13.60552 l -1.676,-1.1133 5.254,-19.68753 h 3.191 c 0,1.01953 1.031,3.20703 2.324,3.20703 2.949,-1.39062 7.946,-4.3476562 17.203,-4.3476562 15.524,0 26.465,7.6718762 26.465,20.8281562 0,12.2929 -6.836,17.2851 -19.933,20.2578" /><path
         id="path16"
         style="fill:#ed1c24;fill-opacity:1;fill-rule:nonzero;stroke:none"
         d="m 198.41,162.594 v 25.398 h -40.726 l -5.118,-25.617 h 14.625 l -4.703,-23.574 h -14.656 l -5.074,-25.516 c -0.379,-1.746 -0.676,-3.004 -0.852,-4.226 -1.203,-7.789 2.231,-7.399 13.184,-7.399 l -5.024,-25.1092 h -19.175 c -18.11,0 -32.8754,0.168 -29.047,18.7187 0.601,2.918 1.328,5.7105 1.847,8.4605 l 6.875,35.071 H 96.4492 l 4.7388,23.574 h 14.066 l 5.121,25.617 h -13.168 v 38.633 H 58.4414 V 147.984 H 0.0898438 C 1.51563,127.645 19.5664,124.68 26.1328,110.172 30.6719,100.207 34.6211,82.6875 47.8594,82.5234 57.9648,82.4063 57.9648,95.625 71,95.625 c 13.043,0 18.8359,-24.7266 30.422,-45.125 8.687,-16.0117 23.113,-26.7383 36.195,-27.6406 10.719,-0.7578 15.91,2.8867 15.91,2.8867 -2.879,5.8594 -4.308,11.6211 -4.308,20.3711 0,13.125 10.117,26.207 21.687,34.9492 15.938,11.6524 33.324,16.0508 39.09,17.4727 v 40.7539 c 0,0 -11.586,6.18 -11.586,23.301 z m -66.426,-60.934 17.102,86.332 H 129.371 L 112.23,101.66 Z m 22.411,113.621 H 134.68 l -3.801,-19.074 h 19.73 l 3.786,19.074" /></g></g></svg>